{
    "asset" : {
        "generator" : "Khronos glTF Blender I/O v1.8.19",
        "version" : "2.0"
    },
    "scene" : 0,
    "scenes" : [
        {
            "name" : "Scene",
            "nodes" : [
                4
            ]
        }
    ],
    "nodes" : [
        {
            "mesh" : 0,
            "name" : "Bolt"
        },
        {
            "mesh" : 1,
            "name" : "Mag"
        },
        {
            "mesh" : 2,
            "name" : "Trigger"
        },
        {
            "children" : [
                0,
                1,
                2
            ],
            "mesh" : 3,
            "name" : "AK47"
        },
        {
            "children" : [
                3
            ],
            "name" : "RootNode"
        }
    ],
    "meshes" : [
        {
            "name" : "Mesh.002",
            "primitives" : [
                {
                    "attributes" : {
                        "POSITION" : 0,
                        "NORMAL" : 1,
                        "TEXCOORD_0" : 2
                    },
                    "indices" : 3
                }
            ]
        },
        {
            "name" : "Mesh.003",
            "primitives" : [
                {
                    "attributes" : {
                        "POSITION" : 4,
                        "NORMAL" : 5,
                        "TEXCOORD_0" : 6
                    },
                    "indices" : 7
                }
            ]
        },
        {
            "name" : "Mesh.001",
            "primitives" : [
                {
                    "attributes" : {
                        "POSITION" : 8,
                        "NORMAL" : 9,
                        "TEXCOORD_0" : 10
                    },
                    "indices" : 11
                }
            ]
        },
        {
            "name" : "Mesh",
            "primitives" : [
                {
                    "attributes" : {
                        "POSITION" : 12,
                        "NORMAL" : 13,
                        "TEXCOORD_0" : 14
                    },
                    "indices" : 15
                },
                {
                    "attributes" : {
                        "POSITION" : 16,
                        "NORMAL" : 17,
                        "TEXCOORD_0" : 18
                    },
                    "indices" : 19
                }
            ]
        }
    ],
    "accessors" : [
        {
            "bufferView" : 0,
            "componentType" : 5126,
            "count" : 136,
            "max" : [
                0.04597920924425125,
                0.029350940138101578,
                -0.0051558054983615875
            ],
            "min" : [
                -0.014797521755099297,
                0.00534233171492815,
                -0.10463707149028778
            ],
            "type" : "VEC3"
        },
        {
            "bufferView" : 1,
            "componentType" : 5126,
            "count" : 136,
            "type" : "VEC3"
        },
        {
            "bufferView" : 2,
            "componentType" : 5126,
            "count" : 136,
            "type" : "VEC2"
        },
        {
            "bufferView" : 3,
            "componentType" : 5123,
            "count" : 240,
            "type" : "SCALAR"
        },
        {
            "bufferView" : 4,
            "componentType" : 5126,
            "count" : 2123,
            "max" : [
                0.014689614064991474,
                0.008916749618947506,
                -0.0062251281924545765
            ],
            "min" : [
                -0.014689614064991474,
                -0.22729551792144775,
                -0.15723413228988647
            ],
            "type" : "VEC3"
        },
        {
            "bufferView" : 5,
            "componentType" : 5126,
            "count" : 2123,
            "type" : "VEC3"
        },
        {
            "bufferView" : 6,
            "componentType" : 5126,
            "count" : 2123,
            "type" : "VEC2"
        },
        {
            "bufferView" : 7,
            "componentType" : 5123,
            "count" : 3420,
            "type" : "SCALAR"
        },
        {
            "bufferView" : 8,
            "componentType" : 5126,
            "count" : 104,
            "max" : [
                0.0025498499162495136,
                -0.03338681533932686,
                0.07337234169244766
            ],
            "min" : [
                -0.0025498499162495136,
                -0.06424152851104736,
                0.04733564332127571
            ],
            "type" : "VEC3"
        },
        {
            "bufferView" : 9,
            "componentType" : 5126,
            "count" : 104,
            "type" : "VEC3"
        },
        {
            "bufferView" : 10,
            "componentType" : 5126,
            "count" : 104,
            "type" : "VEC2"
        },
        {
            "bufferView" : 11,
            "componentType" : 5123,
            "count" : 192,
            "type" : "SCALAR"
        },
        {
            "bufferView" : 12,
            "componentType" : 5126,
            "count" : 4788,
            "max" : [
                0.022749165073037148,
                0.05754341930150986,
                0.1521875262260437
            ],
            "min" : [
                -0.018460912629961967,
                -0.07371123135089874,
                -0.5464524030685425
            ],
            "type" : "VEC3"
        },
        {
            "bufferView" : 13,
            "componentType" : 5126,
            "count" : 4788,
            "type" : "VEC3"
        },
        {
            "bufferView" : 14,
            "componentType" : 5126,
            "count" : 4788,
            "type" : "VEC2"
        },
        {
            "bufferView" : 15,
            "componentType" : 5123,
            "count" : 8673,
            "type" : "SCALAR"
        },
        {
            "bufferView" : 16,
            "componentType" : 5126,
            "count" : 1568,
            "max" : [
                0.01622871309518814,
                0.044318944215774536,
                0.39373183250427246
            ],
            "min" : [
                -0.01622871309518814,
                -0.14589236676692963,
                -0.29501527547836304
            ],
            "type" : "VEC3"
        },
        {
            "bufferView" : 17,
            "componentType" : 5126,
            "count" : 1568,
            "type" : "VEC3"
        },
        {
            "bufferView" : 18,
            "componentType" : 5126,
            "count" : 1568,
            "type" : "VEC2"
        },
        {
            "bufferView" : 19,
            "componentType" : 5123,
            "count" : 2850,
            "type" : "SCALAR"
        }
    ],
    "bufferViews" : [
        {
            "buffer" : 0,
            "byteLength" : 1632,
            "byteOffset" : 0
        },
        {
            "buffer" : 0,
            "byteLength" : 1632,
            "byteOffset" : 1632
        },
        {
            "buffer" : 0,
            "byteLength" : 1088,
            "byteOffset" : 3264
        },
        {
            "buffer" : 0,
            "byteLength" : 480,
            "byteOffset" : 4352
        },
        {
            "buffer" : 0,
            "byteLength" : 25476,
            "byteOffset" : 4832
        },
        {
            "buffer" : 0,
            "byteLength" : 25476,
            "byteOffset" : 30308
        },
        {
            "buffer" : 0,
            "byteLength" : 16984,
            "byteOffset" : 55784
        },
        {
            "buffer" : 0,
            "byteLength" : 6840,
            "byteOffset" : 72768
        },
        {
            "buffer" : 0,
            "byteLength" : 1248,
            "byteOffset" : 79608
        },
        {
            "buffer" : 0,
            "byteLength" : 1248,
            "byteOffset" : 80856
        },
        {
            "buffer" : 0,
            "byteLength" : 832,
            "byteOffset" : 82104
        },
        {
            "buffer" : 0,
            "byteLength" : 384,
            "byteOffset" : 82936
        },
        {
            "buffer" : 0,
            "byteLength" : 57456,
            "byteOffset" : 83320
        },
        {
            "buffer" : 0,
            "byteLength" : 57456,
            "byteOffset" : 140776
        },
        {
            "buffer" : 0,
            "byteLength" : 38304,
            "byteOffset" : 198232
        },
        {
            "buffer" : 0,
            "byteLength" : 17346,
            "byteOffset" : 236536
        },
        {
            "buffer" : 0,
            "byteLength" : 18816,
            "byteOffset" : 253884
        },
        {
            "buffer" : 0,
            "byteLength" : 18816,
            "byteOffset" : 272700
        },
        {
            "buffer" : 0,
            "byteLength" : 12544,
            "byteOffset" : 291516
        },
        {
            "buffer" : 0,
            "byteLength" : 5700,
            "byteOffset" : 304060
        }
    ],
    "buffers" : [
        {
            "byteLength" : 309760,
            "uri" : "data:application/octet-stream;base64,"
        }
    ]
}
