{
    "asset" : {
        "generator" : "Khronos glTF Blender I/O v1.8.19",
        "version" : "2.0"
    },
    "scene" : 0,
    "scenes" : [
        {
            "name" : "Scene",
            "nodes" : [
                3
            ]
        }
    ],
    "nodes" : [
        {
            "mesh" : 0,
            "name" : "Pump"
        },
        {
            "mesh" : 1,
            "name" : "Trigger"
        },
        {
            "children" : [
                0,
                1
            ],
            "mesh" : 2,
            "name" : "Bennelli"
        },
        {
            "children" : [
                2
            ],
            "name" : "RootNode"
        }
    ],
    "meshes" : [
        {
            "name" : "Mesh.006",
            "primitives" : [
                {
                    "attributes" : {
                        "POSITION" : 0,
                        "NORMAL" : 1,
                        "TEXCOORD_0" : 2
                    },
                    "indices" : 3
                },
                {
                    "attributes" : {
                        "POSITION" : 4,
                        "NORMAL" : 5,
                        "TEXCOORD_0" : 6
                    },
                    "indices" : 7
                }
            ]
        },
        {
            "name" : "Mesh.005",
            "primitives" : [
                {
                    "attributes" : {
                        "POSITION" : 8,
                        "NORMAL" : 9,
                        "TEXCOORD_0" : 10
                    },
                    "indices" : 11
                }
            ]
        },
        {
            "name" : "Mesh.004",
            "primitives" : [
                {
                    "attributes" : {
                        "POSITION" : 12,
                        "NORMAL" : 13,
                        "TEXCOORD_0" : 14
                    },
                    "indices" : 15
                }
            ]
        }
    ],
    "accessors" : [
        {
            "bufferView" : 0,
            "componentType" : 5126,
            "count" : 208,
            "max" : [
                0.2772584855556488,
                0.10159912705421448,
                0.3587150573730469
            ],
            "min" : [
                -0.10422200709581375,
                -0.13311953842639923,
                -0.24793684482574463
            ],
            "type" : "VEC3"
        },
        {
            "bufferView" : 1,
            "componentType" : 5126,
            "count" : 208,
            "type" : "VEC3"
        },
        {
            "bufferView" : 2,
            "componentType" : 5126,
            "count" : 208,
            "type" : "VEC2"
        },
        {
            "bufferView" : 3,
            "componentType" : 5123,
            "count" : 408,
            "type" : "SCALAR"
        },
        {
            "bufferView" : 4,
            "componentType" : 5126,
            "count" : 148,
            "max" : [
                0.14974433183670044,
                -0.055146947503089905,
                -0.34895920753479004
            ],
            "min" : [
                -0.14974433183670044,
                -0.3952251672744751,
                -1.8257465362548828
            ],
            "type" : "VEC3"
        },
        {
            "bufferView" : 5,
            "componentType" : 5126,
            "count" : 148,
            "type" : "VEC3"
        },
        {
            "bufferView" : 6,
            "componentType" : 5126,
            "count" : 148,
            "type" : "VEC2"
        },
        {
            "bufferView" : 7,
            "componentType" : 5123,
            "count" : 276,
            "type" : "SCALAR"
        },
        {
            "bufferView" : 8,
            "componentType" : 5126,
            "count" : 100,
            "max" : [
                0.01005951501429081,
                -0.20741374790668488,
                1.1172548532485962
            ],
            "min" : [
                -0.01005951501429081,
                -0.5103164911270142,
                1.0117110013961792
            ],
            "type" : "VEC3"
        },
        {
            "bufferView" : 9,
            "componentType" : 5126,
            "count" : 100,
            "type" : "VEC3"
        },
        {
            "bufferView" : 10,
            "componentType" : 5126,
            "count" : 100,
            "type" : "VEC2"
        },
        {
            "bufferView" : 11,
            "componentType" : 5123,
            "count" : 174,
            "type" : "SCALAR"
        },
        {
            "bufferView" : 12,
            "componentType" : 5126,
            "count" : 2969,
            "max" : [
                0.13368640840053558,
                0.27783313393592834,
                3.87748384475708
            ],
            "min" : [
                -0.13368640840053558,
                -1.219179391860962,
                -3.724001884460449
            ],
            "type" : "VEC3"
        },
        {
            "bufferView" : 13,
            "componentType" : 5126,
            "count" : 2969,
            "type" : "VEC3"
        },
        {
            "bufferView" : 14,
            "componentType" : 5126,
            "count" : 2969,
            "type" : "VEC2"
        },
        {
            "bufferView" : 15,
            "componentType" : 5123,
            "count" : 5541,
            "type" : "SCALAR"
        }
    ],
    "bufferViews" : [
        {
            "buffer" : 0,
            "byteLength" : 2496,
            "byteOffset" : 0
        },
        {
            "buffer" : 0,
            "byteLength" : 2496,
            "byteOffset" : 2496
        },
        {
            "buffer" : 0,
            "byteLength" : 1664,
            "byteOffset" : 4992
        },
        {
            "buffer" : 0,
            "byteLength" : 816,
            "byteOffset" : 6656
        },
        {
            "buffer" : 0,
            "byteLength" : 1776,
            "byteOffset" : 7472
        },
        {
            "buffer" : 0,
            "byteLength" : 1776,
            "byteOffset" : 9248
        },
        {
            "buffer" : 0,
            "byteLength" : 1184,
            "byteOffset" : 11024
        },
        {
            "buffer" : 0,
            "byteLength" : 552,
            "byteOffset" : 12208
        },
        {
            "buffer" : 0,
            "byteLength" : 1200,
            "byteOffset" : 12760
        },
        {
            "buffer" : 0,
            "byteLength" : 1200,
            "byteOffset" : 13960
        },
        {
            "buffer" : 0,
            "byteLength" : 800,
            "byteOffset" : 15160
        },
        {
            "buffer" : 0,
            "byteLength" : 348,
            "byteOffset" : 15960
        },
        {
            "buffer" : 0,
            "byteLength" : 35628,
            "byteOffset" : 16308
        },
        {
            "buffer" : 0,
            "byteLength" : 35628,
            "byteOffset" : 51936
        },
        {
            "buffer" : 0,
            "byteLength" : 23752,
            "byteOffset" : 87564
        },
        {
            "buffer" : 0,
            "byteLength" : 11082,
            "byteOffset" : 111316
        }
    ],
    "buffers" : [
        {
            "byteLength" : 122400,
            "uri" : "data:application/octet-stream;base64,"
        }
    ]
}
