{
    "asset" : {
        "generator" : "Khronos glTF Blender I/O v1.8.19",
        "version" : "2.0"
    },
    "scene" : 0,
    "scenes" : [
        {
            "name" : "Scene",
            "nodes" : [
                1
            ]
        }
    ],
    "nodes" : [
        {
            "mesh" : 0,
            "name" : "Hammer"
        },
        {
            "children" : [
                0
            ],
            "name" : "RootNode"
        }
    ],
    "meshes" : [
        {
            "name" : "Mesh",
            "primitives" : [
                {
                    "attributes" : {
                        "POSITION" : 0,
                        "NORMAL" : 1,
                        "TEXCOORD_0" : 2
                    },
                    "indices" : 3
                },
                {
                    "attributes" : {
                        "POSITION" : 4,
                        "NORMAL" : 5,
                        "TEXCOORD_0" : 6
                    },
                    "indices" : 7
                }
            ]
        }
    ],
    "accessors" : [
        {
            "bufferView" : 0,
            "componentType" : 5126,
            "count" : 127,
            "max" : [
                0.17217570543289185,
                0.004661585204303265,
                0.011411011219024658
            ],
            "min" : [
                -0.10872718691825867,
                -0.028355827555060387,
                -0.011443071067333221
            ],
            "type" : "VEC3"
        },
        {
            "bufferView" : 1,
            "componentType" : 5126,
            "count" : 127,
            "type" : "VEC3"
        },
        {
            "bufferView" : 2,
            "componentType" : 5126,
            "count" : 127,
            "type" : "VEC2"
        },
        {
            "bufferView" : 3,
            "componentType" : 5123,
            "count" : 456,
            "type" : "SCALAR"
        },
        {
            "bufferView" : 4,
            "componentType" : 5126,
            "count" : 385,
            "max" : [
                -0.10851193964481354,
                0.07766244560480118,
                0.017334844917058945
            ],
            "min" : [
                -0.17217570543289185,
                -0.07766248285770416,
                -0.017334844917058945
            ],
            "type" : "VEC3"
        },
        {
            "bufferView" : 5,
            "componentType" : 5126,
            "count" : 385,
            "type" : "VEC3"
        },
        {
            "bufferView" : 6,
            "componentType" : 5126,
            "count" : 385,
            "type" : "VEC2"
        },
        {
            "bufferView" : 7,
            "componentType" : 5123,
            "count" : 1164,
            "type" : "SCALAR"
        }
    ],
    "bufferViews" : [
        {
            "buffer" : 0,
            "byteLength" : 1524,
            "byteOffset" : 0
        },
        {
            "buffer" : 0,
            "byteLength" : 1524,
            "byteOffset" : 1524
        },
        {
            "buffer" : 0,
            "byteLength" : 1016,
            "byteOffset" : 3048
        },
        {
            "buffer" : 0,
            "byteLength" : 912,
            "byteOffset" : 4064
        },
        {
            "buffer" : 0,
            "byteLength" : 4620,
            "byteOffset" : 4976
        },
        {
            "buffer" : 0,
            "byteLength" : 4620,
            "byteOffset" : 9596
        },
        {
            "buffer" : 0,
            "byteLength" : 3080,
            "byteOffset" : 14216
        },
        {
            "buffer" : 0,
            "byteLength" : 2328,
            "byteOffset" : 17296
        }
    ],
    "buffers" : [
        {
            "byteLength" : 19624,
            "uri" : "data:application/octet-stream;base64,"
        }
    ]
}
