{
    "asset" : {
        "generator" : "Khronos glTF Blender I/O v1.8.19",
        "version" : "2.0"
    },
    "scene" : 0,
    "scenes" : [
        {
            "name" : "Scene",
            "nodes" : [
                1
            ]
        }
    ],
    "nodes" : [
        {
            "mesh" : 0,
            "name" : "AssaultRifleCasing",
            "rotation" : [
                0.7071068286895752,
                0,
                0,
                0.7071068286895752
            ]
        },
        {
            "children" : [
                0
            ],
            "name" : "RootNode"
        }
    ],
    "meshes" : [
        {
            "name" : "AssaultRifleCasing",
            "primitives" : [
                {
                    "attributes" : {
                        "POSITION" : 0,
                        "NORMAL" : 1,
                        "TEXCOORD_0" : 2
                    },
                    "indices" : 3
                }
            ]
        }
    ],
    "accessors" : [
        {
            "bufferView" : 0,
            "componentType" : 5126,
            "count" : 70,
            "max" : [
                0.9510565400123596,
                2,
                0.8090171217918396
            ],
            "min" : [
                -0.9510564804077148,
                -2,
                -0.9999999403953552
            ],
            "type" : "VEC3"
        },
        {
            "bufferView" : 1,
            "componentType" : 5126,
            "count" : 70,
            "type" : "VEC3"
        },
        {
            "bufferView" : 2,
            "componentType" : 5126,
            "count" : 70,
            "type" : "VEC2"
        },
        {
            "bufferView" : 3,
            "componentType" : 5123,
            "count" : 108,
            "type" : "SCALAR"
        }
    ],
    "bufferViews" : [
        {
            "buffer" : 0,
            "byteLength" : 840,
            "byteOffset" : 0
        },
        {
            "buffer" : 0,
            "byteLength" : 840,
            "byteOffset" : 840
        },
        {
            "buffer" : 0,
            "byteLength" : 560,
            "byteOffset" : 1680
        },
        {
            "buffer" : 0,
            "byteLength" : 216,
            "byteOffset" : 2240
        }
    ],
    "buffers" : [
        {
            "byteLength" : 2456,
            "uri" : "data:application/octet-stream;base64,"
        }
    ]
}
