# Blender 3.1.0
# www.blender.org
mtllib Plank.mtl
o Cube
v -0.150000 -0.050000 1.250000
v -0.150000 0.050000 1.250000
v -0.150000 -0.050000 -1.250000
v -0.150000 0.050000 -1.250000
v 0.150000 -0.050000 1.250000
v 0.150000 0.050000 1.250000
v 0.150000 -0.050000 -1.250000
v 0.150000 0.050000 -1.250000
vn -1.0000 -0.0000 -0.0000
vn -0.0000 -0.0000 -1.0000
vn 1.0000 -0.0000 -0.0000
vn -0.0000 -0.0000 1.0000
vn -0.0000 -1.0000 -0.0000
vn -0.0000 1.0000 -0.0000
vt 0.129069 0.096816
vt 0.161324 0.096816
vt 0.129070 0.903187
vt 0.161324 0.903187
vt 0.129069 0.000051
vt 0.032305 0.096816
vt 0.000051 0.096816
vt 0.161324 0.000051
vt 0.258089 0.096816
vt 0.129070 0.999949
vt 0.032306 0.903187
vt 0.161324 0.999949
vt 0.000051 0.903187
vt 0.258089 0.903187
s 0
f 1/1/1 2/2/1 4/4/1 3/3/1
f 3/3/2 4/4/2 8/12/2 7/10/2
f 7/11/3 8/13/3 6/7/3 5/6/3
f 5/5/4 6/8/4 2/2/4 1/1/4
f 3/3/5 7/11/5 5/6/5 1/1/5
f 8/14/6 4/4/6 2/2/6 6/9/6
