# Blender 3.1.0
# www.blender.org
mtllib ShippingCrate.mtl
o ShippingCrate
v 0.500000 0.500000 -0.500000
v 0.500000 -0.500000 -0.500000
v -0.500000 0.500000 -0.500000
v -0.500000 -0.500000 -0.500000
v -0.500000 0.382273 -0.382273
v -0.500000 -0.382273 -0.382273
v -0.382273 -0.382273 -0.500000
v -0.382273 0.382273 -0.500000
v 0.382273 0.382273 -0.500000
v 0.382273 -0.382273 -0.500000
v 0.500000 -0.382273 -0.382273
v 0.500000 0.382273 -0.382273
v -0.382273 -0.500000 -0.382273
v 0.382273 -0.500000 -0.382273
v 0.382273 0.500000 -0.382273
v -0.382273 0.500000 -0.382273
v -0.455170 -0.382273 -0.382273
v -0.455170 0.382273 -0.382273
v -0.382273 0.382273 -0.455170
v -0.382273 -0.382273 -0.455170
v 0.382273 -0.382273 -0.455170
v 0.382273 0.382273 -0.455170
v 0.455170 0.382273 -0.382273
v 0.455170 -0.382273 -0.382273
v 0.382273 -0.455170 -0.382273
v -0.382273 -0.455170 -0.382273
v -0.382273 0.455170 -0.382273
v 0.382273 0.455170 -0.382273
v -0.382273 -0.312273 -0.500000
v -0.382273 -0.312273 -0.455170
v -0.312273 -0.382273 -0.500000
v -0.312273 -0.382273 -0.455170
v 0.312273 0.382273 -0.500000
v 0.312273 0.382273 -0.455170
v 0.382273 0.312273 -0.500000
v 0.382273 0.312273 -0.455170
v 0.500000 0.500000 0.500000
v 0.500000 -0.500000 0.500000
v -0.500000 0.500000 0.500000
v -0.500000 -0.500000 0.500000
v -0.500000 0.382273 0.382273
v -0.500000 -0.382273 0.382273
v -0.382273 -0.382273 0.500000
v -0.382273 0.382273 0.500000
v 0.382273 0.382273 0.500000
v 0.382273 -0.382273 0.500000
v 0.500000 -0.382273 0.382273
v 0.500000 0.382273 0.382273
v -0.382273 -0.500000 0.382273
v 0.382273 -0.500000 0.382273
v 0.382273 0.500000 0.382273
v -0.382273 0.500000 0.382273
v -0.455170 -0.382273 0.382273
v -0.455170 0.382273 0.382273
v -0.382273 0.382273 0.455170
v -0.382273 -0.382273 0.455170
v 0.382273 -0.382273 0.455170
v 0.382273 0.382273 0.455170
v 0.455170 0.382273 0.382273
v 0.455170 -0.382273 0.382273
v 0.382273 -0.455170 0.382273
v -0.382273 -0.455170 0.382273
v -0.382273 0.455170 0.382273
v 0.382273 0.455170 0.382273
v -0.382273 -0.312273 0.500000
v -0.382273 -0.312273 0.455170
v -0.312273 -0.382273 0.500000
v -0.312273 -0.382273 0.455170
v 0.312273 0.382273 0.500000
v 0.312273 0.382273 0.455170
v 0.382273 0.312273 0.500000
v 0.382273 0.312273 0.455170
vn -0.0000 1.0000 -0.0000
vn -0.0000 -0.0000 1.0000
vn 1.0000 -0.0000 -0.0000
vn -0.0000 -1.0000 -0.0000
vn -1.0000 -0.0000 -0.0000
vn -0.0000 -0.0000 -1.0000
vn 0.7071 -0.7071 -0.0000
vn -0.7071 0.7071 -0.0000
vt 0.243979 0.064845
vt 0.243979 0.872656
vt 0.243979 0.064845
vt 0.243979 0.872656
vt 0.243979 0.064844
vt 0.243979 0.872656
vt 0.243979 0.872656
vt 0.243979 0.064844
vt 0.303322 0.227443
vt 0.148878 0.159946
vt 0.148878 0.777555
vt 0.303322 0.845055
vt 0.148878 0.777555
vt 0.303322 0.845055
vt 0.303321 0.227443
vt 0.148878 0.159945
vt 0.339536 0.845273
vt 0.339536 0.227444
vt 0.148878 0.159946
vt 0.148878 0.777555
vt 0.071428 0.032032
vt 0.339536 0.845054
vt 0.148878 0.777555
vt 0.148878 0.159946
vt 0.303321 0.845055
vt 0.148878 0.777555
vt 0.148878 0.159946
vt 0.303321 0.227443
vt 0.303321 0.845274
vt 0.071430 0.905469
vt 0.339536 0.227664
vt 0.148878 0.777555
vt 0.148878 0.159945
vt 0.303321 0.227662
vt 0.339535 0.227663
vt 0.303322 0.227443
vt 0.148878 0.159946
vt 0.148878 0.777555
vt 0.339536 0.845274
vt 0.148878 0.159945
vt 0.148878 0.777555
vt 0.339536 0.227663
vt 0.148878 0.159946
vt 0.148878 0.777555
vt 0.303322 0.845055
vt 0.339536 0.845274
vt 0.148878 0.159946
vt 0.148878 0.777555
vt 0.303321 0.227443
vt 0.303322 0.845055
vt 0.148878 0.159946
vt 0.148878 0.777555
vt 0.339536 0.227444
vt 0.303322 0.227443
vt 0.148878 0.159945
vt 0.148878 0.777555
vt 0.339536 0.845055
vt 0.339536 0.227443
vt 0.363144 0.191195
vt 0.339536 0.845055
vt 0.339536 0.227443
vt 0.339536 0.227443
vt 0.363144 0.808805
vt 0.339536 0.845055
vt 0.303321 0.845054
vt 0.980533 0.808805
vt 0.339535 0.845055
vt 0.303321 0.845273
vt 0.303321 0.227444
vt 0.980533 0.191195
vt 0.303321 0.227664
vt 0.362924 0.191195
vt 0.339536 0.227662
vt 0.362924 0.808805
vt 0.339536 0.227443
vt 0.339535 0.845274
vt 0.303321 0.845274
vt 0.980533 0.808805
vt 0.303322 0.227663
vt 0.303321 0.227663
vt 0.339536 0.227443
vt 0.980533 0.191195
vt 0.363143 0.808805
vt 0.339536 0.227443
vt 0.339536 0.845055
vt 0.980753 0.808805
vt 0.339536 0.845055
vt 0.303322 0.845274
vt 0.363144 0.808805
vt 0.303321 0.845054
vt 0.303322 0.227443
vt 0.980753 0.808805
vt 0.303322 0.227443
vt 0.339536 0.227443
vt 0.111413 0.072017
vt 0.303321 0.104256
vt 0.339536 0.104256
vt 0.303322 0.897714
vt 0.031443 0.072017
vt 0.339536 0.897714
vt 0.111413 0.865485
vt 0.303322 0.897716
vt 0.339536 0.897716
vt 0.303321 0.104258
vt 0.031445 0.865484
vt 0.339536 0.104258
vt 0.243979 0.064845
vt 0.243979 0.872656
vt 0.243979 0.872656
vt 0.243979 0.064844
vt 0.243979 0.872656
vt 0.243979 0.064845
vt 0.243979 0.064846
vt 0.243979 0.872656
vt 0.303321 0.845055
vt 0.148878 0.159946
vt 0.148878 0.777555
vt 0.303322 0.227443
vt 0.303321 0.227443
vt 0.148878 0.159947
vt 0.303321 0.845055
vt 0.148878 0.777555
vt 0.339536 0.227443
vt 0.303321 0.227443
vt 0.148878 0.777555
vt 0.148878 0.159947
vt 0.071428 0.032031
vt 0.303322 0.845055
vt 0.148878 0.159945
vt 0.148878 0.777555
vt 0.303321 0.227443
vt 0.148878 0.159945
vt 0.148878 0.777555
vt 0.303322 0.845055
vt 0.339536 0.845055
vt 0.071430 0.905468
vt 0.339536 0.845055
vt 0.148878 0.159945
vt 0.148878 0.777555
vt 0.339535 0.227443
vt 0.303321 0.845055
vt 0.148878 0.159945
vt 0.339536 0.845055
vt 0.148878 0.777555
vt 0.148878 0.777555
vt 0.339536 0.845274
vt 0.339535 0.227442
vt 0.148878 0.159946
vt 0.148878 0.159945
vt 0.339536 0.227663
vt 0.148878 0.777555
vt 0.339536 0.845055
vt 0.148878 0.777555
vt 0.303321 0.227443
vt 0.148878 0.159945
vt 0.339536 0.227443
vt 0.148878 0.159946
vt 0.303321 0.845055
vt 0.148878 0.777555
vt 0.339536 0.845055
vt 0.148878 0.777555
vt 0.339536 0.845055
vt 0.148878 0.159946
vt 0.339536 0.227443
vt 0.980753 0.191195
vt 0.339536 0.227443
vt 0.339535 0.845055
vt 0.339536 0.845055
vt 0.980753 0.808805
vt 0.339536 0.227443
vt 0.339536 0.845055
vt 0.363143 0.808804
vt 0.339536 0.227443
vt 0.303322 0.227443
vt 0.339536 0.227443
vt 0.363144 0.191195
vt 0.303321 0.845055
vt 0.980753 0.191195
vt 0.303321 0.227443
vt 0.980753 0.808805
vt 0.339536 0.845055
vt 0.303321 0.845055
vt 0.362924 0.808805
vt 0.303321 0.845274
vt 0.303321 0.227442
vt 0.339536 0.845055
vt 0.362924 0.191195
vt 0.303321 0.845055
vt 0.363144 0.191195
vt 0.339536 0.227443
vt 0.303322 0.227443
vt 0.980753 0.191195
vt 0.303321 0.227663
vt 0.303321 0.845055
vt 0.363144 0.191195
vt 0.303321 0.845055
vt 0.303322 0.227443
vt 0.980753 0.191195
vt 0.339536 0.845055
vt 0.303321 0.845055
vt 0.031443 0.072017
vt 0.339536 0.104257
vt 0.303322 0.104257
vt 0.303321 0.104258
vt 0.111413 0.072017
vt 0.339536 0.104258
vt 0.031445 0.865484
vt 0.339536 0.897716
vt 0.303321 0.897715
vt 0.303322 0.897713
vt 0.111413 0.865485
vt 0.339536 0.897713
s 0
usemtl UVGrid
f 10/31/1 7/17/1 20/68/1 21/71/1
f 11/35/2 12/39/2 23/77/2 24/80/2
f 24/81/1 60/186/1 47/141/1 11/36/1
f 7/18/3 8/22/3 19/65/3 20/69/3
f 18/62/4 54/168/4 41/115/4 5/9/4
f 37/108/3 48/145/3 12/40/3 1/1/3
f 3/5/5 4/7/5 6/13/5 5/10/5
f 5/11/5 41/116/5 39/112/5 3/6/5
f 4/8/6 3/6/6 8/23/6 7/19/6
f 3/5/6 1/2/6 9/26/6 8/24/6
f 1/1/6 2/4/6 10/32/6 9/27/6
f 2/3/6 4/7/6 7/20/6 10/33/6
f 2/3/3 1/2/3 12/41/3 11/37/3
f 11/38/3 47/142/3 38/110/3 2/4/3
f 38/109/4 50/153/4 14/47/4 2/3/4
f 4/8/4 2/4/4 14/48/4 13/43/4
f 13/44/4 49/149/4 40/113/4 4/7/4
f 39/111/1 52/161/1 16/55/1 3/5/1
f 1/1/1 3/6/1 16/56/1 15/51/1
f 15/52/1 51/157/1 37/107/1 1/2/1
f 60/187/3 24/82/3 23/78/3 59/183/3
f 64/198/1 28/92/1 27/89/1 63/195/1
f 20/70/6 19/66/6 22/74/6 21/72/6
f 62/192/4 26/86/4 25/83/4 61/189/4
f 17/59/5 53/165/5 54/169/5 18/63/5
f 42/119/1 53/166/1 17/60/1 6/14/1
f 13/45/2 14/49/2 25/84/2 26/87/2
f 5/12/2 6/15/2 17/61/2 18/64/2
f 26/88/3 62/193/3 49/150/3 13/46/3
f 15/53/2 16/57/2 27/90/2 28/93/2
f 8/25/4 9/28/4 22/75/4 19/67/4
f 48/146/4 59/184/4 23/79/4 12/42/4
f 28/94/5 64/199/5 51/158/5 15/54/5
f 50/154/5 61/190/5 25/85/5 14/50/5
f 9/29/5 10/34/5 21/73/5 22/76/5
f 52/162/3 63/196/3 27/91/3 16/58/3
f 9/30/6 7/21/6 29/95/6 33/101/6
f 32/100/7 31/98/7 35/104/7 36/106/7
f 30/97/8 34/103/8 33/102/8 29/96/8
f 9/30/6 35/105/6 31/99/6 7/21/6
f 46/137/1 57/177/1 56/174/1 43/123/1
f 47/143/6 60/188/6 59/185/6 48/147/6
f 43/124/3 56/175/3 55/171/3 44/128/3
f 39/111/5 41/117/5 42/120/5 40/113/5
f 40/114/2 43/125/2 44/129/2 39/112/2
f 39/111/2 44/130/2 45/132/2 37/107/2
f 37/108/2 45/133/2 46/138/2 38/110/2
f 38/109/2 46/139/2 43/126/2 40/113/2
f 38/109/3 47/144/3 48/148/3 37/107/3
f 40/114/4 49/151/4 50/155/4 38/110/4
f 37/108/1 51/159/1 52/163/1 39/112/1
f 56/176/2 57/178/2 58/180/2 55/172/2
f 49/152/6 62/194/6 61/191/6 50/156/6
f 41/118/6 54/170/6 53/167/6 42/121/6
f 51/160/6 64/200/6 63/197/6 52/164/6
f 44/131/4 55/173/4 58/181/4 45/134/4
f 45/135/5 58/182/5 57/179/5 46/140/5
f 45/136/2 69/207/2 65/201/2 43/127/2
f 68/206/7 72/212/7 71/210/7 67/204/7
f 66/203/8 65/202/8 69/208/8 70/209/8
f 45/136/2 43/127/2 67/205/2 71/211/2
f 40/114/5 42/122/5 6/16/5 4/8/5
